# xmcd
#
# Track frame offsets:
#	225
#	18231
#	42194
#	69709
#	89200
#	101122
#	111076
#	130051
#	143846
#	154874
#	175813
#	197448
#
# Disc length: 2901 seconds
#
# Revision: 0
# Processed by: cddbd v1.5.1PL0 Copyright (c) Steve Scherf et al.
# Submitted via: dBpowerAMP V4.0
#
DISCID=a50b520c
DTITLE=The Mike Reilly Band - Whos Been Sleeping In My Bed?
DYEAR=1999
DGENRE=Blues
TTITLE0=Whos Been Sleeping In My Bed
TTITLE1=Back On The Road to Texas
TTITLE2=Black Widow
TTITLE3=What Keeps Yo Rockin
TTITLE4=Leftys Bar and Grill
TTITLE5=Hard Workin
TTITLE6=They're Takin Everything Away
TTITLE7=Just Watch Me
TTITLE8=Good To Go
TTITLE9=Back To The Basics
TTITLE10=Shakey Ground
TTITLE11=Whos Been Sleeping In My Bed (Reprise)
EXTD=
EXTT0=
EXTT1=
EXTT2=
EXTT3=
EXTT4=
EXTT5=
EXTT6=
EXTT7=
EXTT8=
EXTT9=
EXTT10=
EXTT11=
PLAYORDER=
